<mxfile host="Electron" modified="2024-07-03T18:26:32.582Z" agent="Mozilla/5.0 (X11; Linux x86_64) AppleWebKit/537.36 (KHTML, like Gecko) draw.io/24.5.3 Chrome/124.0.6367.207 Electron/30.0.6 Safari/537.36" etag="o8aWDW_OZn6_y41mwaHI" version="24.5.3" type="device">
  <diagram name="Page-1" id="RABYfwV_eksm-VZdK7Lp">
    <mxGraphModel dx="1914" dy="1325" grid="0" gridSize="10" guides="1" tooltips="1" connect="1" arrows="1" fold="1" page="0" pageScale="1" pageWidth="850" pageHeight="1100" math="0" shadow="0">
      <root>
        <mxCell id="0" />
        <mxCell id="1" parent="0" />
        <mxCell id="y7Nc0gfPf71BSPnIsDWY-1" value="" style="rounded=0;whiteSpace=wrap;html=1;" parent="1" vertex="1">
          <mxGeometry x="164" y="-81" width="551" height="363" as="geometry" />
        </mxCell>
        <mxCell id="y7Nc0gfPf71BSPnIsDWY-3" value="" style="sketch=0;outlineConnect=0;fontColor=#232F3E;gradientColor=none;fillColor=#C925D1;strokeColor=none;dashed=0;verticalLabelPosition=bottom;verticalAlign=top;align=center;html=1;fontSize=12;fontStyle=0;aspect=fixed;pointerEvents=1;shape=mxgraph.aws4.rds_instance_alt;" parent="1" vertex="1">
          <mxGeometry x="223" y="-77" width="223" height="223" as="geometry" />
        </mxCell>
        <mxCell id="y7Nc0gfPf71BSPnIsDWY-2" value="" style="sketch=0;outlineConnect=0;fontColor=#232F3E;gradientColor=none;fillColor=#C925D1;strokeColor=none;dashed=0;verticalLabelPosition=bottom;verticalAlign=top;align=center;html=1;fontSize=12;fontStyle=0;aspect=fixed;pointerEvents=1;shape=mxgraph.aws4.rds_mariadb_instance;" parent="1" vertex="1">
          <mxGeometry x="350" y="56" width="72" height="72" as="geometry" />
        </mxCell>
        <mxCell id="y7Nc0gfPf71BSPnIsDWY-4" value="Prometheus&lt;div&gt;&lt;br&gt;&lt;/div&gt;" style="sketch=0;points=[[0,0,0],[0.25,0,0],[0.5,0,0],[0.75,0,0],[1,0,0],[0,1,0],[0.25,1,0],[0.5,1,0],[0.75,1,0],[1,1,0],[0,0.25,0],[0,0.5,0],[0,0.75,0],[1,0.25,0],[1,0.5,0],[1,0.75,0]];points=[[0,0,0],[0.25,0,0],[0.5,0,0],[0.75,0,0],[1,0,0],[0,1,0],[0.25,1,0],[0.5,1,0],[0.75,1,0],[1,1,0],[0,0.25,0],[0,0.5,0],[0,0.75,0],[1,0.25,0],[1,0.5,0],[1,0.75,0]];outlineConnect=0;fontColor=#232F3E;fillColor=#E7157B;strokeColor=#ffffff;dashed=0;verticalLabelPosition=bottom;verticalAlign=top;align=center;html=1;fontSize=12;fontStyle=0;aspect=fixed;shape=mxgraph.aws4.resourceIcon;resIcon=mxgraph.aws4.managed_service_for_prometheus;" parent="1" vertex="1">
          <mxGeometry x="602" y="-32" width="59" height="59" as="geometry" />
        </mxCell>
        <mxCell id="y7Nc0gfPf71BSPnIsDWY-5" value="" style="outlineConnect=0;dashed=0;verticalLabelPosition=bottom;verticalAlign=top;align=center;html=1;shape=mxgraph.aws3.cloud_2;fillColor=#F58534;gradientColor=none;" parent="1" vertex="1">
          <mxGeometry x="164" y="-81" width="47" height="49" as="geometry" />
        </mxCell>
        <mxCell id="kQgt2tWPdjJarTZjN0CS-2" value="Developer" style="html=1;verticalLabelPosition=bottom;align=center;labelBackgroundColor=#ffffff;verticalAlign=top;strokeWidth=2;strokeColor=#0080F0;shadow=0;dashed=0;shape=mxgraph.ios7.icons.user;" parent="1" vertex="1">
          <mxGeometry x="-283" y="62" width="69" height="65" as="geometry" />
        </mxCell>
        <mxCell id="kQgt2tWPdjJarTZjN0CS-3" value="Deployment&amp;nbsp;&lt;br&gt;AWS RDS / Prometheus" style="sketch=0;points=[[0,0,0],[0.25,0,0],[0.5,0,0],[0.75,0,0],[1,0,0],[0,1,0],[0.25,1,0],[0.5,1,0],[0.75,1,0],[1,1,0],[0,0.25,0],[0,0.5,0],[0,0.75,0],[1,0.25,0],[1,0.5,0],[1,0.75,0]];outlineConnect=0;fontColor=#232F3E;fillColor=#C925D1;strokeColor=#ffffff;dashed=0;verticalLabelPosition=bottom;verticalAlign=top;align=center;html=1;fontSize=12;fontStyle=0;aspect=fixed;shape=mxgraph.aws4.resourceIcon;resIcon=mxgraph.aws4.command_line_interface;" parent="1" vertex="1">
          <mxGeometry x="-137" y="160" width="78" height="78" as="geometry" />
        </mxCell>
        <mxCell id="fRO3yZ99jXJuDDPYZmIP-2" value="WMS Initialisierung" style="sketch=0;outlineConnect=0;fontColor=#232F3E;gradientColor=none;fillColor=#C925D1;strokeColor=none;dashed=0;verticalLabelPosition=bottom;verticalAlign=top;align=center;html=1;fontSize=12;fontStyle=0;aspect=fixed;pointerEvents=1;shape=mxgraph.aws4.rds_mariadb_instance;" parent="1" vertex="1">
          <mxGeometry x="-137" y="1" width="78" height="78" as="geometry" />
        </mxCell>
        <mxCell id="fRO3yZ99jXJuDDPYZmIP-3" value="Deployment Script&lt;br&gt;(boto3)" style="outlineConnect=0;dashed=0;verticalLabelPosition=bottom;verticalAlign=top;align=center;html=1;shape=mxgraph.aws3.android;fillColor=#FFD44F;gradientColor=none;" parent="1" vertex="1">
          <mxGeometry x="20" y="62" width="73.5" height="84" as="geometry" />
        </mxCell>
        <mxCell id="fRO3yZ99jXJuDDPYZmIP-4" value="" style="endArrow=none;html=1;rounded=0;" parent="1" edge="1">
          <mxGeometry width="50" height="50" relative="1" as="geometry">
            <mxPoint x="-206" y="66.5" as="sourcePoint" />
            <mxPoint x="-148" y="29.5" as="targetPoint" />
          </mxGeometry>
        </mxCell>
        <mxCell id="fRO3yZ99jXJuDDPYZmIP-5" value="" style="endArrow=none;html=1;rounded=0;" parent="1" edge="1">
          <mxGeometry width="50" height="50" relative="1" as="geometry">
            <mxPoint x="-204" y="123" as="sourcePoint" />
            <mxPoint x="-148" y="160" as="targetPoint" />
          </mxGeometry>
        </mxCell>
        <mxCell id="fRO3yZ99jXJuDDPYZmIP-7" value="" style="endArrow=none;html=1;rounded=0;" parent="1" edge="1">
          <mxGeometry width="50" height="50" relative="1" as="geometry">
            <mxPoint x="103" y="99" as="sourcePoint" />
            <mxPoint x="155" y="99" as="targetPoint" />
          </mxGeometry>
        </mxCell>
        <mxCell id="eh1mkLwceX3lnVoIsROr-1" value="&lt;font color=&quot;#7aa116&quot;&gt;&lt;b&gt;Backup&lt;/b&gt;&lt;/font&gt;" style="sketch=0;outlineConnect=0;fontColor=#232F3E;gradientColor=none;fillColor=#7AA116;strokeColor=none;dashed=0;verticalLabelPosition=bottom;verticalAlign=top;align=center;html=1;fontSize=12;fontStyle=0;aspect=fixed;pointerEvents=1;shape=mxgraph.aws4.backup_restore;" parent="1" vertex="1">
          <mxGeometry x="261" y="62" width="48.5" height="48.5" as="geometry" />
        </mxCell>
        <mxCell id="kUJUPyqDLGvWh6KPjPqF-1" value="" style="endArrow=none;html=1;rounded=0;" parent="1" edge="1">
          <mxGeometry width="50" height="50" relative="1" as="geometry">
            <mxPoint x="-52" y="168" as="sourcePoint" />
            <mxPoint y="139" as="targetPoint" />
          </mxGeometry>
        </mxCell>
        <mxCell id="kUJUPyqDLGvWh6KPjPqF-3" value="" style="endArrow=none;html=1;rounded=0;" parent="1" edge="1">
          <mxGeometry width="50" height="50" relative="1" as="geometry">
            <mxPoint x="-47" y="27" as="sourcePoint" />
            <mxPoint x="1" y="61" as="targetPoint" />
          </mxGeometry>
        </mxCell>
        <mxCell id="R2uZIRM4b0ulyh9skn13-2" value="&lt;font style=&quot;font-size: 16px;&quot;&gt;&lt;b&gt;EC2 Instance&lt;/b&gt;&lt;/font&gt;" style="points=[[0,0],[0.25,0],[0.5,0],[0.75,0],[1,0],[1,0.25],[1,0.5],[1,0.75],[1,1],[0.75,1],[0.5,1],[0.25,1],[0,1],[0,0.75],[0,0.5],[0,0.25]];outlineConnect=0;gradientColor=none;html=1;whiteSpace=wrap;fontSize=12;fontStyle=0;container=1;pointerEvents=0;collapsible=0;recursiveResize=0;shape=mxgraph.aws4.group;grIcon=mxgraph.aws4.group_ec2_instance_contents;strokeColor=#D86613;fillColor=none;verticalAlign=top;align=left;spacingLeft=30;fontColor=#D86613;dashed=0;strokeWidth=4;perimeterSpacing=0;" vertex="1" parent="1">
          <mxGeometry x="457" y="-73" width="244" height="217" as="geometry" />
        </mxCell>
        <mxCell id="R2uZIRM4b0ulyh9skn13-3" value="Grafana" style="image;aspect=fixed;html=1;points=[];align=center;fontSize=12;image=img/lib/azure2/other/Grafana.svg;" vertex="1" parent="R2uZIRM4b0ulyh9skn13-2">
          <mxGeometry x="148" y="135" width="58.6" height="45.5" as="geometry" />
        </mxCell>
        <mxCell id="R2uZIRM4b0ulyh9skn13-7" value="RDS Exporter" style="outlineConnect=0;dashed=0;verticalLabelPosition=bottom;verticalAlign=top;align=center;html=1;shape=mxgraph.aws3.import_export;fillColor=#E05243;gradientColor=none;" vertex="1" parent="R2uZIRM4b0ulyh9skn13-2">
          <mxGeometry x="22" y="44" width="64.5" height="63" as="geometry" />
        </mxCell>
        <mxCell id="R2uZIRM4b0ulyh9skn13-9" value="&lt;b&gt;&lt;font color=&quot;#cc0000&quot;&gt;IAM&lt;/font&gt;&lt;/b&gt;" style="rounded=1;whiteSpace=wrap;html=1;strokeColor=#CC0000;verticalAlign=top;strokeWidth=3;" vertex="1" parent="1">
          <mxGeometry x="223" y="159" width="477" height="114.5" as="geometry" />
        </mxCell>
        <mxCell id="R2uZIRM4b0ulyh9skn13-5" value="Roles / Policys" style="sketch=0;outlineConnect=0;fontColor=#232F3E;gradientColor=none;fillColor=#DD344C;strokeColor=none;dashed=0;verticalLabelPosition=bottom;verticalAlign=top;align=center;html=1;fontSize=12;fontStyle=0;aspect=fixed;pointerEvents=1;shape=mxgraph.aws4.identity_access_management_iam_roles_anywhere;" vertex="1" parent="1">
          <mxGeometry x="446" y="190" width="45" height="45" as="geometry" />
        </mxCell>
      </root>
    </mxGraphModel>
  </diagram>
</mxfile>
